Coordinates
version=1
nRows=17
nColumns=40
inDegrees=yes

Units are S.I. units (second, meters, Newtons, ...)
Angles are in degrees.

endheader
time	pelvis_tilt	pelvis_list	pelvis_rotation	pelvis_tx	pelvis_ty	pelvis_tz	hip_flexion_r	hip_adduction_r	hip_rotation_r	knee_angle_r	knee_angle_r_beta	ankle_angle_r	subtalar_angle_r	mtp_angle_r	hip_flexion_l	hip_adduction_l	hip_rotation_l	knee_angle_l	knee_angle_l_beta	ankle_angle_l	subtalar_angle_l	mtp_angle_l	lumbar_extension	lumbar_bending	lumbar_rotation	arm_flex_r	arm_add_r	arm_rot_r	elbow_flex_r	pro_sup_r	wrist_flex_r	wrist_dev_r	arm_flex_l	arm_add_l	arm_rot_l	elbow_flex_l	pro_sup_l	wrist_flex_l	wrist_dev_l
     40.18750000	     -1.73994174	     -3.61770767	      2.27937814	      0.92939512	      0.90907609	      0.55418752	     14.56960885	      3.89608493	     -6.52072078	     33.26391612	     33.26391612	     20.22898295	    -13.08899295	      0.01813072	     31.44956208	    -12.51784456	      4.87884944	     72.48406441	     72.48406441	      8.22637168	    -19.39819773	     18.67731414	    -10.40062854	      4.93429965	      1.40671944	     17.13335704	    -12.95381528	     -9.77332171	     29.92098088	     46.56990077	      0.00000000	      0.00000000	     11.99840512	     -6.61457995	     -3.68447520	     28.19467763	     45.88785832	      0.00000000	      0.00000000
     40.20500000	     -1.47086612	     -3.54845100	      3.00174463	      0.92787398	      0.90799443	      0.55376527	     14.26626575	      3.87819096	     -6.60107401	     33.79556641	     33.79556641	     20.84824947	    -13.86220508	      0.77242235	     32.43586633	    -12.41091347	      4.92271477	     72.07404706	     72.07404706	      9.86039234	    -19.43535945	     20.65829633	    -10.54324982	      4.92315116	      1.61256290	     18.71221959	    -13.30777139	    -10.08485103	     31.86387799	     46.49680993	      0.00000000	      0.00000000	     10.58685183	     -6.52795151	     -1.80071244	     26.72505238	     45.56730144	      0.00000000	      0.00000000
     40.22250000	     -1.27550133	     -3.47810036	      3.69688552	      0.92626422	      0.90736030	      0.55316891	     13.87055834	      3.83523036	     -6.76213414	     33.97816028	     33.97816028	     21.14013275	    -14.51631563	      0.86823925	     33.23074529	    -12.37245647	      4.77939893	     70.87298652	     70.87298652	     10.83718298	    -19.47368892	     20.66190371	    -10.62822090	      4.89570458	      1.48432598	     20.80517205	    -13.49660226	    -10.20533848	     33.22316644	     46.46005625	      0.00000000	      0.00000000	      8.84502705	     -6.46079119	     -1.45389103	     25.80190416	     45.48361747	      0.00000000	      0.00000000
     40.24000000	     -1.15394076	     -3.39353253	      4.35617453	      0.92453499	      0.90730619	      0.55237812	     13.40239569	      3.75737184	     -6.97235486	     33.87015070	     33.87015070	     21.36192731	    -14.94428767	      1.01218614	     33.87384862	    -12.27852823	      4.55117416	     68.98618985	     68.98618985	     11.74498728	    -19.49118558	     20.82796985	    -10.67612039	      4.83025385	      1.45502667	     22.88154741	    -13.75966400	    -10.31793101	     34.68723783	     46.41857185	      0.00000000	      0.00000000	      7.15336805	     -6.41982343	     -1.13282782	     25.02039125	     45.40217397	      0.00000000	      0.00000000
     40.25750000	     -1.15790936	     -3.28736753	      4.97664807	      0.92271771	      0.90773088	      0.55131889	     12.91832405	      3.61424243	     -7.26891716	     33.47609898	     33.47609898	     21.47022524	    -15.15829393	      1.19942647	     34.40049157	    -12.06772213	      4.27752392	     66.44895825	     66.44895825	     12.52344521	    -19.49615290	     20.94836390	    -10.63694668	      4.74271379	      1.42233941	     24.95597136	    -14.05835307	    -10.41528739	     36.38054921	     46.36562676	      0.00000000	      0.00000000	      5.44238931	     -6.43531962	     -0.77379159	     24.41040598	     45.31075561	      0.00000000	      0.00000000
     40.27500000	     -1.24310803	     -3.13641057	      5.54371714	      0.92078697	      0.90873679	      0.55007238	     12.38793400	      3.40230963	     -7.59216714	     32.82714055	     32.82714055	     21.47625089	    -15.17054415	      1.36904256	     34.71139990	    -11.71261757	      3.96166039	     63.23833136	     63.23833136	     12.94984705	    -19.46715581	     20.94166141	    -10.55225657	      4.57749260	      1.51205643	     27.02991581	    -14.48635214	    -10.49627564	     38.03465418	     46.31484736	      0.00000000	      0.00000000	      3.81403477	     -6.45969164	     -0.49142587	     23.94194060	     45.23155641	      0.00000000	      0.00000000
     40.29250000	     -1.41289395	     -2.95295438	      6.06505507	      0.91874917	      0.91017892	      0.54850933	     11.82142900	      3.10856965	     -7.98165558	     31.93491177	     31.93491177	     21.37526825	    -14.96998095	      1.51748972	     34.81580355	    -11.15975289	      3.70902217	     59.46066478	     59.46066478	     13.12454837	    -19.40842267	     20.68505151	    -10.42325149	      4.37967410	      1.53149583	     29.11871578	    -14.83894174	    -10.53488586	     39.84797529	     46.25568308	      0.00000000	      0.00000000	      2.20720430	     -6.54174481	     -0.22025617	     23.58262542	     45.15257324	      0.00000000	      0.00000000
     40.31000000	     -1.70335331	     -2.80211838	      6.54961032	      0.91661798	      0.91173762	      0.54676928	     11.29337000	      2.79906155	     -8.50877338	     30.84319601	     30.84319601	     20.96863297	    -14.64631514	      0.88008171	     34.72025702	    -10.55414832	      3.48193941	     55.07052914	     55.07052914	     12.18062683	    -19.31548317	     17.85806958	    -10.25183523	      4.22101792	      1.85271246	     30.30168868	    -15.90417792	     -9.28686137	     44.08334385	     45.94188245	      0.00000000	      0.00000000	      0.04681090	     -7.49448495	      6.18309615	     25.15576900	     44.18440900	      0.00000000	      0.00000000
     40.32750000	     -2.04334804	     -2.56068428	      6.96081497	      0.91443758	      0.91366506	      0.54478564	     10.73736714	      2.40434707	     -8.94184929	     29.62796353	     29.62796353	     20.74145417	    -14.19198081	      1.09160494	     34.42140696	     -9.60994400	      3.55166183	     50.40906061	     50.40906061	     11.93870030	    -19.10403949	     17.74467761	    -10.02981659	      3.90713144	      1.92959926	     32.59488037	    -16.33797767	     -9.46797328	     45.51504105	     45.90930482	      0.00000000	      0.00000000	     -1.32140833	     -7.54426678	      6.24483294	     24.76841065	     44.16494537	      0.00000000	      0.00000000
     40.34500000	     -2.49907021	     -2.33626193	      7.31707230	      0.91220073	      0.91549316	      0.54260494	     10.26286677	      1.99550631	     -9.40643861	     28.32632784	     28.32632784	     20.48213325	    -13.59615761	      1.25008313	     34.01823933	     -8.60510402	      3.78254732	     45.51598268	     45.51598268	     11.49896091	    -18.61663186	     17.40123797	     -9.69620019	      3.59044570	      1.97521787	     34.90257920	    -16.76855963	     -9.57476438	     47.10269619	     45.86796047	      0.00000000	      0.00000000	     -2.65112187	     -7.56685045	      6.30205171	     24.47092167	     44.14204409	      0.00000000	      0.00000000
     40.36250000	     -2.77355424	     -2.26820565	      7.65595838	      0.91024254	      0.91720144	      0.54031553	      9.54209387	      1.70514104	    -10.20111488	     26.94449879	     26.94449879	     20.02467054	    -12.53687785	      0.34165420	     32.98900788	     -7.94456332	      3.84999776	     39.94194444	     39.94194444	      8.20945355	    -18.10309305	      9.41691587	     -9.63983828	      3.52600298	      1.93660512	     36.53312305	    -17.41488876	     -8.94512033	     51.26463806	     45.68384612	      0.00000000	      0.00000000	     -4.46515185	     -7.83280608	      6.75462683	     25.68721190	     44.13475617	      0.00000000	      0.00000000
     40.38000000	     -3.17015845	     -2.08955987	      7.88660771	      0.90825440	      0.91874733	      0.53799762	      8.97898900	      1.38920079	    -10.51647290	     25.61687662	     25.61687662	     19.77761380	    -11.86400458	      0.50309654	     32.23061027	     -7.09162169	      4.14775748	     35.14044209	     35.14044209	      7.99897679	    -16.33090686	      9.61400624	     -9.36199245	      3.21588656	      1.99234825	     38.88308267	    -17.70374067	     -8.95999066	     52.69963126	     45.64534068	      0.00000000	      0.00000000	     -5.58385693	     -7.85644499	      6.88298592	     25.24925886	     44.10872445	      0.00000000	      0.00000000
     40.39750000	     -3.59942572	     -2.12577665	      8.07763944	      0.90633954	      0.91964427	      0.53559976	      8.55163968	      1.25786291	    -11.02383129	     24.44684856	     24.44684856	     19.61494677	    -11.08949892	      0.53483625	     31.58166021	     -6.55251065	      4.37592775	     30.77917569	     30.77917569	      7.91064431	    -14.07725952	      9.51501886	     -9.06696744	      3.15365754	      1.94820122	     41.32310069	    -18.03127701	     -8.91922683	     54.40557070	     45.59573583	      0.00000000	      0.00000000	     -6.65123078	     -7.82032380	      6.98756224	     24.97509066	     44.08470122	      0.00000000	      0.00000000
     40.41500000	     -3.83668189	     -2.24872789	      8.22943881	      0.90477207	      0.92024163	      0.53314691	      7.87519195	      1.18191020	    -11.82317239	     23.23708343	     23.23708343	     19.39646583	     -9.78810747	     -0.34035675	     30.70814706	     -6.29386840	      4.22990709	     26.73341225	     26.73341225	      6.71693463	    -11.63849385	      6.34352124	     -9.08003343	      3.24770045	      1.92448280	     43.00545062	    -18.72392275	     -7.80755777	     58.53890407	     45.41723526	      0.00000000	      0.00000000	     -8.06574917	     -7.97115694	      7.38470520	     25.86852708	     44.08135728	      0.00000000	      0.00000000
     40.43250000	     -4.12180655	     -2.36288081	      8.35783021	      0.90329130	      0.92052398	      0.53067861	      7.31358526	      1.20737039	    -12.14545533	     22.12894608	     22.12894608	     19.31394290	     -9.18245091	     -0.33704068	     30.09724043	     -5.99838422	      4.16900523	     23.60440336	     23.60440336	      6.64656592	     -9.21772812	      6.42710177	     -8.92934274	      3.22441873	      1.81672240	     45.36772876	    -18.82169775	     -7.77413249	     60.21642955	     45.37143795	      0.00000000	      0.00000000	     -8.93539002	     -7.91609979	      7.55876887	     25.58622110	     44.06367349	      0.00000000	      0.00000000
     40.45000000	     -4.39707672	     -2.53742010	      8.42843316	      0.90201127	      0.92038013	      0.52816852	      6.81178465	      1.26770347	    -12.48974433	     21.17120076	     21.17120076	     19.29412676	     -8.43446335	     -0.48115692	     29.66194370	     -5.85215998	      3.84456746	     21.26379144	     21.26379144	      6.57284599	     -6.93744200	      6.23549262	     -8.77570588	      3.26874001	      1.65719798	     47.51891140	    -18.86403183	     -7.60140154	     62.30380896	     45.30634385	      0.00000000	      0.00000000	     -9.78445599	     -7.87174078	      7.68376371	     25.50525996	     44.05680377	      0.00000000	      0.00000000
     40.46750000	     -4.67266874	     -2.77462941	      8.46884630	      0.90094899	      0.91981863	      0.52566065	      6.38765872	      1.38449350	    -12.83585172	     20.36714074	     20.36714074	     19.26578653	     -7.75545903	     -0.91021518	     29.45033351	     -5.84096575	      3.31352349	     19.72337707	     19.72337707	      6.19339211	     -5.02794832	      5.16584627	     -8.61282335	      3.33222089	      1.71390530	     49.13554292	    -19.20140535	     -7.23961674	     65.25951890	     45.21048150	      0.00000000	      0.00000000	    -10.53112182	     -7.87555718	      7.80636081	     25.84526533	     44.09012531	      0.00000000	      0.00000000
